<svg width="17" height="17" viewBox="0 0 17 17" fill="none" xmlns="http://www.w3.org/2000/svg">
<path d="M6.23784 9.37005C7.96025 9.37005 9.35654 7.77485 9.35654 5.80707C9.35654 3.83929 7.96025 2.24409 6.23784 2.24409C4.51543 2.24409 3.11914 3.83929 3.11914 5.80707C3.11914 7.77485 4.51543 9.37005 6.23784 9.37005Z" fill="#874CD1"/>
<path d="M12.4748 14.6395C12.4748 16.8041 9.29947 16.0647 6.2374 16.0647C3.17533 16.0647 0 16.8041 0 14.6395C0 12.475 3.17533 10.7203 6.2374 10.7203C9.29947 10.7203 12.4748 12.475 12.4748 14.6395Z" fill="#874CD1"/>
<path d="M12.0008 2.16118C12.0008 3.12774 12.5265 3.90882 13.3893 4.24439L13.3893 7.85629C12.7681 8.20469 12.1922 8.91383 12.1923 9.81737C12.1923 9.82448 12.1976 9.83172 12.1977 9.83886C12.1977 10.9236 12.8359 11.7255 13.9004 11.9839C14.0489 12.0203 14.1996 11.9328 14.237 11.7886C14.2442 11.7607 14.2468 11.7317 14.2446 11.703L14.148 10.4931C14.4003 10.3608 14.7041 10.3606 14.9565 10.4927L14.8524 11.7096C14.8398 11.8572 14.9527 11.9868 15.1047 11.9991C15.1382 12.0018 15.1721 11.9985 15.2044 11.9894C16.1857 11.7133 16.7909 10.8932 16.8008 9.84691C16.801 8.88048 16.2886 8.0994 15.3912 7.76384L15.3912 4.13547C16.1505 3.72753 16.6178 2.9482 16.6178 2.14496C16.6178 1.05148 15.9792 0.255182 14.9011 0.0148239C14.8163 -0.00425051 14.7272 0.0174387 14.6617 0.0730864C14.5954 0.128868 14.5606 0.212105 14.568 0.297018L14.6655 1.50695C14.4134 1.6392 14.1097 1.6393 13.8575 1.50729L13.9621 0.290414C13.9747 0.142814 13.8618 0.0132148 13.7098 0.000911912C13.6762 -0.00180343 13.6424 0.00148184 13.61 0.0106C12.624 0.288034 12.0008 1.11209 12.0008 2.16118Z" fill="#874CD1"/>
</svg>
