<svg width="15" height="15" viewBox="0 0 15 15" fill="none" xmlns="http://www.w3.org/2000/svg">
<g clip-path="url(#clip0_618_197)">
<path d="M13.9498 2.24984H3.60011V0.899881C3.60011 0.718087 3.49032 0.553392 3.32202 0.484094C3.15373 0.414796 2.96113 0.453495 2.83154 0.581291L0.131621 3.28121C-0.0438736 3.4567 -0.0438736 3.74199 0.131621 3.91749L2.83154 6.6174C2.96113 6.7461 3.15373 6.7848 3.32202 6.7155C3.49032 6.6462 3.60011 6.48151 3.60011 6.29971V4.94975H13.9498C14.1982 4.94975 14.3998 4.74816 14.3998 4.49977V2.69982C14.3998 2.45053 14.1982 2.24984 13.9498 2.24984Z" fill="#4779CC"/>
<path d="M14.2682 10.4819L11.5682 7.78105C11.4395 7.65236 11.246 7.61366 11.0778 7.68386C10.9095 7.75405 10.7997 7.91785 10.7997 8.09964V9.4496H0.449986C0.201594 9.4496 0 9.65119 0 9.89958V11.6995C0 11.9479 0.201594 12.1495 0.449986 12.1495H10.7997V13.4995C10.7997 13.6813 10.9095 13.846 11.0778 13.9152C11.246 13.9854 11.4395 13.9467 11.5682 13.8181L14.2682 11.1181C14.4437 10.9426 14.4437 10.6574 14.2682 10.4819Z" fill="#4779CC"/>
</g>
<defs>
<clipPath id="clip0_618_197">
<rect width="14.4" height="14.4" fill="white"/>
</clipPath>
</defs>
</svg>
